<mxfile host="app.diagrams.net" modified="2024-02-03T07:17:15.338Z" agent="Mozilla/5.0 (Windows NT 10.0; Win64; x64) AppleWebKit/537.36 (KHTML, like Gecko) Chrome/121.0.0.0 Safari/537.36" version="23.1.1" etag="n9T-KdGSYkdzyhi2ZgJF" type="github">
  <diagram name="Page-1" id="Sm7PM3iPXjluqB5V4nDC">
    <mxGraphModel>
      <root>
        <mxCell id="0" />
        <mxCell id="1" parent="0" />
      </root>
    </mxGraphModel>
  </diagram>
</mxfile>
